<svg xmlns="http://www.w3.org/2000/svg" width="12" height="12" viewBox="0 0 12 12" fill="none">
    <path
        d="M1 5.34326C0.585786 5.34326 0.25 5.67905 0.25 6.09326C0.25 6.50748 0.585786 6.84326 1 6.84326L1 5.34326ZM11.5303 6.62359C11.8232 6.3307 11.8232 5.85582 11.5303 5.56293L6.75736 0.78996C6.46447 0.497067 5.98959 0.497067 5.6967 0.78996C5.40381 1.08285 5.40381 1.55773 5.6967 1.85062L9.93934 6.09326L5.6967 10.3359C5.40381 10.6288 5.40381 11.1037 5.6967 11.3966C5.98959 11.6895 6.46447 11.6895 6.75736 11.3966L11.5303 6.62359ZM1 6.84326L11 6.84326L11 5.34326L1 5.34326L1 6.84326Z"
        fill="currentColor" />
</svg>