<svg xmlns="http://www.w3.org/2000/svg" width="12" height="12" viewBox="0 0 12 12" fill="none">
    <path
        d="M0.46967 5.56293C0.176777 5.85582 0.176777 6.3307 0.46967 6.62359L5.24264 11.3966C5.53553 11.6895 6.01041 11.6895 6.3033 11.3966C6.59619 11.1037 6.59619 10.6288 6.3033 10.3359L2.06066 6.09326L6.3033 1.85062C6.59619 1.55773 6.59619 1.08285 6.3033 0.78996C6.01041 0.497067 5.53553 0.497067 5.24264 0.78996L0.46967 5.56293ZM11 6.84326C11.4142 6.84326 11.75 6.50747 11.75 6.09326C11.75 5.67905 11.4142 5.34326 11 5.34326L11 6.84326ZM1 6.84326L11 6.84326L11 5.34326L1 5.34326L1 6.84326Z"
        fill="currentColor" />
</svg>