<svg width="49" height="50" viewBox="0 0 49 50" fill="none" xmlns="http://www.w3.org/2000/svg">
    <path d="M22.8359 33.4678L25.6595 33.4717L25.6555 36.2952L22.832 36.2913L22.8359 33.4678Z"
        fill="currentColor" />
    <path d="M20.0195 27.8164L28.4901 27.8282L28.4862 30.6518L20.0156 30.6399L20.0195 27.8164Z"
        fill="currentColor" />
    <path
        d="M34.9569 12.3084L30.7315 5.24368L17.8388 5.22568L13.5937 12.2786L0.2753 12.26L0.261848 21.8947L0.725937 21.9656L18.7272 24.9916L29.7878 25.0071C29.8842 24.9911 28.2333 25.2642 48.2618 21.9518L48.2753 12.327L34.9569 12.3084ZM16.8863 12.2832L19.4334 8.05144L29.1289 8.06498L31.6642 12.3038L16.8863 12.2832Z"
        fill="currentColor" />
    <path
        d="M31.3058 33.4798L28.4823 33.4759L28.4744 39.1229L20.0038 39.1111L20.0117 33.4641L17.1882 33.4601L17.1964 27.5973L3.08203 25.2246L3.05479 44.7345L45.4077 44.7937L45.4349 25.2837L31.314 27.617L31.3058 33.4798Z"
        fill="currentColor" />
</svg>