<svg width="32" height="33" viewBox="0 0 32 33">
  <path fill-rule="evenodd"
    d="M16.0003 29.4777C23.3641 29.4777 29.3337 23.5082 29.3337 16.1444C29.3337 8.78057 23.3641 2.81104 16.0003 2.81104C8.63653 2.81104 2.66699 8.78057 2.66699 16.1444C2.66699 23.5082 8.63653 29.4777 16.0003 29.4777ZM23.412 12.8114C23.7804 12.3999 23.7455 11.7677 23.334 11.3993C22.9225 11.0309 22.2903 11.0659 21.922 11.4773L17.4297 16.4949C16.5195 17.5116 15.9065 18.1927 15.3823 18.6332C14.8831 19.0529 14.5898 19.1444 14.3337 19.1444C14.0775 19.1444 13.7842 19.0529 13.285 18.6332C12.7609 18.1927 12.1479 17.5116 11.2376 16.4949L10.0787 15.2005C9.7103 14.789 9.0781 14.7541 8.66663 15.1225C8.25516 15.4909 8.22024 16.1231 8.58863 16.5345L9.79703 17.8843C10.6448 18.8313 11.352 19.6212 11.9981 20.1643C12.6816 20.7388 13.4189 21.1444 14.3337 21.1444C15.2484 21.1444 15.9857 20.7388 16.6692 20.1643C17.3153 19.6212 18.0225 18.8313 18.8703 17.8843L23.412 12.8114Z"
    fill="currentColor" />
</svg>