<svg width="currentWidth" height="currentHeight" viewBox="0 0 48 49" fill="none" xmlns="http://www.w3.org/2000/svg">
<g clip-path="url(#clip0_1_8497)">
<path d="M24.0001 29.1069C23.2241 29.1069 22.5938 29.7373 22.5938 30.5133C22.5938 31.2892 23.2241 31.9196 24.0001 31.9196C24.7761 31.9196 25.4064 31.2892 25.4064 30.5133C25.4064 29.7373 24.7761 29.1069 24.0001 29.1069Z" fill="currentColor"/>
<path d="M32.4385 20.6689H14.9245C9.83987 20.6689 5.71777 24.7909 5.71777 29.8757C5.71777 38.5612 11.4815 46.6329 19.9734 48.4569C31.8016 50.9975 42.2829 41.909 42.2829 30.5134C42.2829 25.0765 37.8754 20.6689 32.4385 20.6689ZM25.4067 34.4734V41.858C25.4067 42.6354 24.7776 43.2644 24.0003 43.2644C23.223 43.2644 22.594 42.6354 22.594 41.858V34.4734C20.9606 33.891 19.7813 32.3445 19.7813 30.5134C19.7813 28.1869 21.6738 26.2944 24.0003 26.2944C26.3268 26.2944 28.2194 28.1869 28.2194 30.5134C28.2194 32.3445 27.0401 33.8909 25.4067 34.4734Z" fill="currentColor"/>
<path d="M24 0.88623C16.9964 0.88623 11.3428 6.53973 11.3428 13.5434V18.4624C12.4815 18.1036 13.669 17.8563 14.9246 17.8563H16.9682V13.5434C16.9682 9.66189 20.1184 6.5117 24 6.5117C27.8815 6.5117 31.0317 9.66189 31.0317 13.5434V17.8562H32.438C33.9245 17.8562 35.3309 18.1609 36.6571 18.6338V13.5434C36.6572 6.54648 30.9898 0.88623 24 0.88623Z" fill="currentColor"/>
</g>
</svg>
