<svg xmlns="http://www.w3.org/2000/svg" width="48" height="49" viewBox="0 0 48 49" fill="none">
    <path
        d="M11.2 35.3453C10.5576 35.3453 9.9544 35.0949 9.5024 34.6413L0.7032 25.8421C0.2504 25.3909 0 24.7877 0 24.1453C0 23.5029 0.2504 22.8997 0.704 22.4477L9.5032 13.6485C9.9544 13.1957 10.5576 12.9453 11.2 12.9453C12.5232 12.9453 13.6 14.0221 13.6 15.3453C13.6 15.9877 13.3496 16.5909 12.896 17.0429L5.7936 24.1453L12.8968 31.2485C13.3504 31.6997 13.6 32.3029 13.6 32.9453C13.6 34.2685 12.5232 35.3453 11.2 35.3453Z"
        fill="currentColor" />
    <path
        d="M36.8004 36.1451C35.4772 36.1451 34.4004 35.0683 34.4004 33.7451C34.4004 33.1027 34.6508 32.4995 35.1044 32.0475L42.2068 24.9451L35.1036 17.8419C34.6508 17.3891 34.4004 16.7859 34.4004 16.1451C34.4004 14.8219 35.4772 13.7451 36.8004 13.7451C37.4428 13.7451 38.046 13.9955 38.498 14.4491L47.2972 23.2483C47.7508 23.7011 48.0004 24.3043 48.0004 24.9451C48.0004 25.5875 47.75 26.1907 47.2964 26.6427L38.4972 35.4419C38.046 35.8955 37.4428 36.1451 36.8004 36.1451Z"
        fill="currentColor" />
    <path
        d="M16.8004 42.5451C15.4772 42.5451 14.4004 41.4683 14.4004 40.1451C14.4004 39.8267 14.4628 39.5155 14.5844 39.2211L28.9852 7.21952C29.3612 6.32352 30.2308 5.74512 31.2004 5.74512C32.5236 5.74512 33.6004 6.82192 33.6004 8.14512C33.6004 8.46352 33.538 8.77472 33.4164 9.06912L19.0156 41.0707C18.6396 41.9667 17.77 42.5451 16.8004 42.5451Z"
        fill="currentColor" />
</svg>