<svg viewBox="0 0 48 48" width="48" height="48" fill="currentColor" xmlns="http://www.w3.org/2000/svg">
  <path
    d="M6.33694 38.4H16.8969L15.9369 42.24H11.7129C10.5609 42.24 9.79294 43.008 9.79294 44.16C9.79294 45.12 10.5609 46.08 11.7129 46.08H36.2889C37.4409 46.08 38.2089 45.12 38.2089 44.16C38.2089 43.008 37.4409 42.24 36.2889 42.24H32.2569L31.2969 38.4H41.8569C44.7369 38.4 47.2329 35.904 47.2329 33.024C47.2329 23.808 47.2329 16.896 47.2329 7.48796C47.2329 4.60796 44.7369 2.11196 41.8569 2.11196H6.33694C3.45694 1.91996 0.960938 4.41596 0.960938 7.29596V32.832C0.960938 35.904 3.26494 38.4 6.33694 38.4ZM4.80094 7.29596C4.80094 6.52796 5.56894 5.75996 6.33694 5.75996H41.6649C42.4329 5.75996 43.2009 6.52796 43.2009 7.29596V26.88H4.80094V7.29596Z"
    fill="currentColor" />
  <path
    d="M35.5225 19.9682C34.5625 19.9682 33.9865 19.3922 33.6025 18.8162C33.2185 18.0482 33.4105 17.2802 33.9865 16.7042L34.1785 16.5122C34.9465 15.7442 34.9465 14.5922 34.1785 13.8242L32.8345 12.4802C32.0665 11.7122 30.9145 11.7122 30.1465 12.4802L29.9545 12.6722C29.5705 13.4402 28.8025 13.4402 28.0345 13.2482C28.0345 13.2482 28.0345 13.2482 27.8425 13.2482C27.0745 13.0562 26.6905 12.2882 26.6905 11.5202V11.3282C26.6905 10.3682 25.9225 9.4082 24.7705 9.4082H23.0425C22.0825 9.4082 21.1225 10.1762 21.1225 11.3282V11.5202C21.1225 12.2882 20.7385 13.0562 19.9705 13.2482C19.9705 13.2482 19.9705 13.2482 19.7785 13.2482C19.2025 13.4402 18.4345 13.4402 17.8585 12.8642V12.6722C17.0905 11.9042 15.9385 11.9042 15.1705 12.6722L13.8265 14.0162C13.0585 14.7842 13.0585 15.9362 13.8265 16.7042L14.0185 16.8962C14.5945 17.2802 14.7865 18.0482 14.4025 18.8162C14.0185 19.5842 13.4425 19.9682 12.6745 19.9682H12.4825C11.5225 19.9682 10.5625 20.7362 10.5625 21.8882V23.0402H18.2425V22.8482C18.2425 19.5842 20.7385 17.0882 24.0025 17.0882C27.2665 17.0882 29.7625 19.5842 29.7625 22.8482V23.0402H37.4425V21.8882C37.4425 20.9282 36.4825 19.9682 35.5225 19.9682Z"
    fill="currentColor" />
</svg>
