<svg viewBox="0 0 48 48" width="48" height="48" xmlns="http://www.w3.org/2000/svg">
  <path d="M11.8516 32.114V38.4802L13.4578 40.0864L15.0643 38.4802V32.114L13.4578 30.5078L11.8516 32.114Z"
    fill="currentColor" />
  <path
    d="M20.7338 23.2299L15.4449 28.5187L17.4631 30.5369C17.7268 30.8005 17.8751 31.1583 17.8751 31.5311V39.0623C17.8751 39.4354 17.7268 39.7932 17.4631 40.0569L14.4507 43.0693C14.176 43.344 13.816 43.4813 13.4564 43.4813C13.0964 43.4813 12.7365 43.344 12.4622 43.0693L9.44971 40.0569C9.18567 39.7932 9.03772 39.4354 9.03772 39.0623V31.5311C9.03772 31.1583 9.18567 30.8005 9.44971 30.5369L11.4675 28.5187L6.17834 23.2295C2.46423 25.6271 0 29.8022 0 34.5421V46.5938C0 47.3705 0.629517 48 1.40625 48H25.5062C26.283 48 26.9125 47.3705 26.9125 46.5938V34.5421C26.9125 29.8022 24.4486 25.6274 20.7338 23.2299Z"
    fill="currentColor" />
  <path
    d="M10.3561 23.4304L13.4557 26.53L16.5553 23.4304C20.8052 22.1069 23.8993 18.1361 23.8993 13.4563C23.8993 7.69763 19.2144 3.0127 13.4557 3.0127C7.69702 3.0127 3.01172 7.69763 3.01172 13.4563C3.01172 18.1361 6.10583 22.1069 10.3561 23.4304Z"
    fill="currentColor" />
  <path
    d="M46.7051 1.29456C45.8705 0.459595 44.7609 0 43.5806 0H30.0242C28.8439 0 27.7343 0.459595 26.9008 1.29382C26.0654 2.12769 25.6055 3.23767 25.6055 4.4187V22.4938C25.6055 24.9302 27.5878 26.9125 30.0242 26.9125H31.6304V33.0374C31.6304 33.6064 31.9731 34.1191 32.4987 34.3367C32.6726 34.4088 32.8553 34.4436 33.0366 34.4436C33.4025 34.4436 33.7621 34.3011 34.0312 34.032L41.1504 26.9125H43.5806C46.017 26.9125 47.9993 24.9302 47.9993 22.4938V4.4187C47.9993 3.23767 47.5393 2.12769 46.7051 1.29456ZM36.8024 21.6409C36.026 21.6409 35.3961 21.0106 35.3961 20.2346C35.3961 19.4583 36.026 18.8284 36.8024 18.8284C37.5787 18.8284 38.2086 19.4583 38.2086 20.2346C38.2086 21.0106 37.5787 21.6409 36.8024 21.6409ZM41.9744 10.8988C41.9744 13.1737 40.3553 15.078 38.2086 15.5193V15.7156C38.2086 16.4923 37.5791 17.1218 36.8024 17.1218C36.0256 17.1218 35.3961 16.4923 35.3961 15.7156V14.6635C35.3961 13.6377 36.2307 12.8031 37.2565 12.8031C38.3071 12.8031 39.1615 11.9487 39.1615 10.8988V10.4436C39.1615 9.14282 38.1031 8.08447 36.8024 8.08447C35.5005 8.08447 34.4429 9.14209 34.4429 10.4421V11.1969C34.4429 11.9736 33.8134 12.6031 33.0366 12.6031C32.2599 12.6031 31.6304 11.9736 31.6304 11.1969V10.4421C31.6304 7.59119 33.9496 5.27197 36.8005 5.27197C39.6541 5.27197 41.974 7.59192 41.974 10.4436V10.8988H41.9744Z"
    fill="currentColor" />
</svg>
