<svg xmlns="http://www.w3.org/2000/svg" width="48" height="49" viewBox="0 0 48 49" fill="none">
    <path
        d="M40.3986 22.0723V25.1668C43.4276 26.6803 45.1876 28.5537 45.1876 30.4122C45.1876 34.6716 36.6179 38.0177 28.1394 38.723C27.3653 38.7868 26.7899 39.4662 26.8546 40.2393C26.9153 40.983 27.5565 41.5833 28.3709 41.5251C35.7512 40.9175 47.9991 37.7328 47.9991 30.4122C47.9991 26.4139 44.087 23.6634 40.3986 22.0723Z"
        fill="currentColor" />
    <path
        d="M15.5457 33.9483C14.7649 33.1538 13.4079 33.5421 13.1695 34.6336L12.5483 37.4786C3.24151 34.9737 -1.22681 29.586 7.61719 25.1668V22.0723C-3.98774 27.0785 -2.16665 36.4815 11.9475 40.2292L11.3889 42.7871C11.1493 43.8838 12.2362 44.8114 13.2844 44.3922L20.3132 41.5806C21.243 41.2088 21.4978 40.0067 20.7939 39.2902L15.5457 33.9483Z"
        fill="currentColor" />
    <path
        d="M24.6253 3.97865C24.1918 3.73293 23.6608 3.73518 23.2294 3.98428L11.834 10.5634C13.7639 11.6776 22.9578 16.9857 24.0066 17.5912L36.1833 10.5281L24.6253 3.97865Z"
        fill="currentColor" />
    <path
        d="M10.4278 26.1563C10.4278 26.6586 10.6958 27.1226 11.1307 27.3738L22.602 33.9967V20.0269L10.4277 12.998L10.4278 26.1563Z"
        fill="currentColor" />
    <path
        d="M37.5882 26.156V12.9629L25.4141 20.0246V33.9964L36.8854 27.3734C37.3204 27.1222 37.5882 26.6583 37.5882 26.156Z"
        fill="currentColor" />

</svg>