<svg width="139" height="60" viewBox="0 0 139 60" fill="none" xmlns="http://www.w3.org/2000/svg">
<path d="M0 30.0899C0 45.6002 11.7466 58.3703 26.8345 60H33.3733C47.2902 58.4981 58.3653 47.5175 60 33.6489V26.5269C58.2374 11.5878 45.5236 0 30.1039 0C13.4772 0 0 13.4691 0 30.0859" fill="#FFF07D"/>
<mask id="mask0_36_1448" style="mask-type:alpha" maskUnits="userSpaceOnUse" x="0" y="0" width="60" height="60">
<path d="M0 30.0899C0 45.6002 11.7466 58.3703 26.8345 60H33.3733C47.2902 58.4981 58.3653 47.5175 60 33.6489V26.5269C58.2374 11.5878 45.5236 0 30.1039 0C13.4772 0 0 13.4691 0 30.0859" fill="#835E5E"/>
</mask>
<g mask="url(#mask0_36_1448)">
<path d="M62.7248 47.062L53.4283 30.9725C53.0086 30.2496 52.2372 29.8022 51.3979 29.8022H32.8048C31.9695 29.8022 31.1941 30.2496 30.7744 30.9725L21.4778 47.062C21.0582 47.785 21.0582 48.6798 21.4778 49.4027L30.7744 65.4922C31.1941 66.2152 31.9655 66.6626 32.8048 66.6626H51.3979C52.2332 66.6626 53.0086 66.2152 53.4283 65.4922L62.7248 49.4027C63.1445 48.6798 63.1445 47.785 62.7248 47.062Z" fill="black"/>
<path d="M42.0095 10.7769L32.7129 -5.31255C32.2933 -6.03554 31.5219 -6.48291 30.6826 -6.48291H12.0894C11.2541 -6.48291 10.4787 -6.03554 10.0591 -5.31255L0.762502 10.7769C0.342838 11.4999 0.342838 12.3946 0.762502 13.1176L10.0591 29.2071C10.4787 29.9301 11.2501 30.3775 12.0894 30.3775H30.6826C31.5179 30.3775 32.2933 29.9301 32.7129 29.2071L42.0095 13.1176C42.4292 12.3946 42.4292 11.4999 42.0095 10.7769Z" fill="black"/>
<path d="M10.7305 23.2714H13.8999L13.808 23.1076C13.3443 22.3007 12.533 21.7255 11.4259 21.7255C10.3308 21.7255 10.1749 22.2968 10.6425 23.1116L10.7345 23.2714H10.7305ZM9.50744 25.2446L8.37634 23.2754C7.08537 21.0265 8.18449 19.8202 10.3268 19.8162C12.4811 19.8162 14.9511 21.0145 16.242 23.2634L17.2173 24.961L11.7057 24.969L11.8855 25.2846C12.3731 26.1314 13.3004 26.7345 14.991 26.7305C15.7145 26.7305 16.5138 26.6866 17.557 26.2952L18.6401 28.1765C17.9367 28.5081 17.0134 28.6359 15.8464 28.6399C13.4323 28.6399 10.9023 27.6692 9.50744 25.2446Z" fill="#FFF07D"/>
<path d="M25.1108 26.1593L22.8806 22.2728C22.2891 21.9612 21.6376 21.7575 21.0341 21.7575C19.939 21.7575 19.7911 22.3287 20.3067 23.2274L21.4458 25.2126C21.9614 26.1114 22.7607 26.6786 23.8558 26.6786C24.4594 26.6786 24.875 26.4749 25.1068 26.1593M19.2475 25.5202L17.7567 22.9239C16.6016 20.9147 17.429 19.8082 19.3914 19.8082C20.2467 19.8082 21.0581 20.0119 21.7935 20.3834L19.4154 16.2452H21.7895L28.7999 28.4601H26.6056L26.2899 27.9129C26.0141 28.3802 25.4066 28.6359 24.4514 28.6359C22.4889 28.6359 20.3986 27.5374 19.2435 25.5242" fill="#FFF07D"/>
<path d="M26.126 42.9678L29.8511 36.5289H28.6001L29.6153 34.7753H30.8702L31.7216 33.3014C32.8327 31.384 34.6552 31.0885 35.6544 31.0885C36.0261 31.0885 36.4138 31.1124 36.8095 31.1684L35.7943 32.9219C35.7024 32.9139 35.4986 32.9059 35.3627 32.9059C34.4434 32.9059 34.0757 33.2175 33.7999 33.6928L33.1724 34.7753H34.7592L33.744 36.5289H32.1572L28.4322 42.9678H26.1221H26.126Z" fill="#FFF07D"/>
<path d="M36.9735 33.2454L38.1285 31.2442H40.5266L39.3715 33.2414H36.9735V33.2454ZM31.4099 42.9638L36.1501 34.7713H38.4603L33.7201 42.9638H31.4099Z" fill="#FFF07D"/>
<path d="M34.6914 42.9598L40.6107 38.7297L39.6555 34.7673L42.3493 34.7633L42.8769 37.1479L46.1662 34.7633L48.8281 34.7593L43.3005 38.7177L44.3157 42.9518L41.6339 42.9558L41.0383 40.2915L37.3653 42.9598H34.6914Z" fill="#FFF07D"/>
</g>
<path d="M88.1719 37.3359V40.5H76.834V37.3359H88.1719ZM78.0645 19.1719V40.5H74.0361V19.1719H78.0645ZM86.6924 27.9756V31.0664H76.834V27.9756H86.6924ZM88.1279 19.1719V22.3506H76.834V19.1719H88.1279ZM99.8906 37.1309V18H103.787V40.5H100.271L99.8906 37.1309ZM89.71 32.7656V32.458C89.71 31.2471 89.8467 30.1484 90.1201 29.1621C90.4033 28.166 90.8135 27.3115 91.3506 26.5986C91.8877 25.8857 92.5371 25.334 93.2988 24.9434C94.0703 24.5527 94.9443 24.3574 95.9209 24.3574C96.8682 24.3574 97.6934 24.5479 98.3965 24.9287C99.1094 25.3096 99.7148 25.8516 100.213 26.5547C100.721 27.2578 101.126 28.0928 101.429 29.0596C101.731 30.0166 101.951 31.0713 102.088 32.2236V33.0586C101.951 34.1816 101.731 35.2119 101.429 36.1494C101.126 37.0869 100.721 37.9072 100.213 38.6104C99.7148 39.3037 99.1094 39.8408 98.3965 40.2217C97.6836 40.6025 96.8486 40.793 95.8916 40.793C94.9248 40.793 94.0557 40.5928 93.2842 40.1924C92.5225 39.792 91.873 39.2305 91.3359 38.5078C90.8086 37.7852 90.4033 36.9355 90.1201 35.959C89.8467 34.9824 89.71 33.918 89.71 32.7656ZM93.5918 32.458V32.7656C93.5918 33.4492 93.6504 34.0889 93.7676 34.6846C93.8848 35.2803 94.0752 35.8076 94.3389 36.2666C94.6025 36.7158 94.9395 37.0674 95.3496 37.3213C95.7695 37.5752 96.2773 37.7021 96.873 37.7021C97.6348 37.7021 98.2598 37.5361 98.748 37.2041C99.2461 36.8623 99.6318 36.3984 99.9053 35.8125C100.179 35.2168 100.354 34.5479 100.433 33.8057V31.5059C100.394 30.9199 100.291 30.3779 100.125 29.8799C99.9688 29.3818 99.7441 28.9521 99.4512 28.5908C99.168 28.2295 98.8164 27.9463 98.3965 27.7412C97.9766 27.5361 97.4785 27.4336 96.9023 27.4336C96.3066 27.4336 95.7988 27.5654 95.3789 27.8291C94.959 28.083 94.6172 28.4395 94.3535 28.8984C94.0898 29.3574 93.8945 29.8896 93.7676 30.4951C93.6504 31.1006 93.5918 31.7549 93.5918 32.458ZM112.181 40.5H108.284V23.7715C108.284 22.4629 108.548 21.3594 109.075 20.4609C109.612 19.5527 110.379 18.8643 111.375 18.3955C112.381 17.9268 113.577 17.6924 114.964 17.6924C115.774 17.6924 116.556 17.7754 117.308 17.9414C118.069 18.0977 118.851 18.3027 119.651 18.5566L119.08 21.6914C118.562 21.5254 117.996 21.3691 117.381 21.2227C116.775 21.0762 116.058 21.0029 115.228 21.0029C114.202 21.0029 113.436 21.2373 112.928 21.7061C112.43 22.1748 112.181 22.8633 112.181 23.7715V40.5ZM115.345 24.6504V27.4336H105.896V24.6504H115.345ZM121.468 24.6504V40.5H117.586V24.6504H121.468ZM128.25 24.6504L131.077 29.6895L133.948 24.6504H138.152L133.494 32.4141L138.343 40.5H134.139L131.106 35.2119L128.06 40.5H123.855L128.689 32.4141L124.061 24.6504H128.25Z" fill="black"/>
</svg>
