<svg width="51" height="52" viewBox="0 0 51 52" fill="none" xmlns="http://www.w3.org/2000/svg">
    <path
        d="M36.9017 22.5216L29.5555 25.5559C26.315 26.8681 22.7381 27.033 19.4385 26.0224L11.8394 23.6772L11.7247 26.1907C11.5987 29.5023 13.1804 32.543 15.3985 33.2336C19.3592 34.4107 23.4863 34.7153 27.5161 34.1595C28.3396 29.3022 32.2301 25.4134 37.198 24.675L36.9017 22.5216ZM45.7436 12.5328C45.4376 11.9414 44.9032 11.5 44.2474 11.3477L27.5438 6.20777C24.9503 5.39997 22.1646 5.52842 19.6564 6.57146L3.50341 13.2696C2.90789 13.4845 2.37315 13.9752 2.1229 14.5922C1.86763 15.2046 1.89991 15.9046 2.21045 16.4909C2.51641 17.0822 3.0461 17.5239 3.70681 17.6808L7.14741 18.7282C6.08432 19.8487 5.49857 21.3172 5.56931 22.8516L6.11495 34.6851L6.11915 34.7761C5.75414 34.8843 5.43672 35.0863 5.17144 35.3772C4.90619 35.6681 4.73422 36.0028 4.66014 36.3762L4.09776 39.29C3.86874 40.3672 4.14821 41.4258 4.83876 42.2301C5.52451 43.0345 6.52152 43.5027 7.59075 43.4534C8.61204 43.4063 9.60967 42.8462 10.2185 41.982C10.8801 41.1154 11.0587 39.9876 10.7337 38.984L9.90563 36.1344C9.7927 35.7696 9.59546 35.4519 9.30454 35.1867C9.00884 34.9216 8.67897 34.7494 8.30077 34.6756C8.29856 34.6276 8.29856 34.6276 8.29657 34.5845L7.75292 22.7941C7.72086 22.0989 7.92573 21.4359 8.2693 20.8627C8.6608 20.2873 9.1546 19.8465 9.79127 19.5865L20.2783 15.0572C16.6176 17.3642 11.8681 20.2355 11.8681 20.2355L20.4076 22.8641C23.0011 23.6718 25.7869 23.5434 28.2951 22.5004L44.4528 15.802C45.0915 15.5852 45.5831 15.0964 45.8313 14.4363C46.0816 13.8193 46.0495 13.1241 45.7436 12.5328Z"
        fill="currentColor" />
    <path
        d="M38.4573 26.481C33.1434 26.726 29.0306 31.2315 29.2758 36.55C29.5209 41.8639 34.0311 45.9764 39.3449 45.7314C44.6633 45.4862 48.7713 40.9763 48.5263 35.6624C48.2811 30.3439 43.7757 26.2358 38.4573 26.481ZM38.1935 41.2361L33.0141 36.4288L34.2294 35.3496L37.201 37.4636C38.3019 36.0222 40.7773 33.1223 44.2588 30.7619L44.5932 31.4581C41.4424 34.6356 38.9374 39.0113 38.1935 41.2361Z"
        fill="currentColor" />
</svg>
