<svg xmlns="http://www.w3.org/2000/svg" width="24" height="25" viewBox="0 0 24 25" fill="none">
    <path
        d="M24.0004 16.3881C24.0004 13.4099 22.2918 10.7519 19.7329 9.45898C19.6534 15.1693 15.0238 19.799 9.31348 19.8784C10.6064 22.4373 13.2643 24.1459 16.2426 24.1459C17.6389 24.1459 18.9968 23.774 20.1899 23.0674L23.9665 24.112L22.9219 20.3354C23.6285 19.1423 24.0004 17.7844 24.0004 16.3881Z"
        fill="currentColor" />
    <path
        d="M18.3281 9.30957C18.3281 4.25641 14.2172 0.145508 9.16406 0.145508C4.1109 0.145508 0 4.25641 0 9.30957C0 10.9564 0.438354 12.5599 1.27075 13.9676L0.0336914 18.4398L4.50604 17.2029C5.91376 18.0353 7.51721 18.4736 9.16406 18.4736C14.2172 18.4736 18.3281 14.3627 18.3281 9.30957ZM7.75781 7.17676H6.35156C6.35156 5.62585 7.61316 4.36426 9.16406 4.36426C10.715 4.36426 11.9766 5.62585 11.9766 7.17676C11.9766 7.96393 11.6433 8.72052 11.062 9.25226L9.86719 10.3458V11.4424H8.46094V9.7265L10.1125 8.21478C10.4077 7.9447 10.5703 7.57611 10.5703 7.17676C10.5703 6.40131 9.93951 5.77051 9.16406 5.77051C8.38861 5.77051 7.75781 6.40131 7.75781 7.17676ZM8.46094 12.8486H9.86719V14.2549H8.46094V12.8486Z"
        fill="currentColor" />
</svg>