<svg xmlns="http://www.w3.org/2000/svg" width="24" height="25" viewBox="0 0 24 25" fill="none">
    <path
        d="M17.8942 10.677L14.155 12.0234C12.5063 12.6041 10.716 12.6041 9.09119 12.0234L5.34968 10.677L5.23449 11.9298C5.09529 13.5809 5.81527 15.1361 6.90725 15.5321C8.85839 16.2112 10.9127 16.4584 12.9383 16.2736C13.4615 13.8665 15.4942 12.0137 17.9925 11.7594L17.8942 10.677ZM22.5404 5.8915C22.4012 5.58911 22.1444 5.35632 21.8204 5.26513L13.5959 2.31322C12.3191 1.85002 10.9247 1.85002 9.64798 2.31322L1.42579 5.28672C1.1234 5.38035 0.845012 5.61313 0.705811 5.91553C0.564209 6.21552 0.564209 6.5659 0.705811 6.86589C0.845012 7.16829 1.0994 7.40107 1.42579 7.49467L3.12015 8.09706C2.56336 8.63224 2.23697 9.35222 2.23697 10.1202V16.0432V16.0888C2.05217 16.1344 1.88898 16.228 1.74978 16.3672C1.61059 16.5064 1.51699 16.6696 1.47139 16.8544L1.1234 18.2968C0.984198 18.8296 1.0994 19.3647 1.42579 19.7824C1.74978 20.2 2.23697 20.4567 2.77215 20.4567C3.28334 20.4567 3.79453 20.2 4.11851 19.7824C4.46891 19.3647 4.5841 18.8056 4.44492 18.2968L4.09692 16.8544C4.04892 16.6696 3.95772 16.5064 3.81852 16.3672C3.67693 16.228 3.51614 16.1344 3.32894 16.0888C3.32894 16.0648 3.32894 16.0648 3.32894 16.0432V10.1418C3.32894 9.7938 3.44653 9.46741 3.63133 9.18901C3.84013 8.91064 4.09692 8.70182 4.42091 8.58663L9.76317 6.5659C7.88163 7.63386 5.44328 8.95863 5.44328 8.95863L9.64798 10.4682C10.9247 10.9314 12.3191 10.9314 13.5959 10.4682L21.8204 7.49467C22.1444 7.40107 22.4012 7.16829 22.5404 6.84427C22.6796 6.54188 22.6796 6.1939 22.5404 5.8915Z"
        fill="currentColor" />
    <path
        d="M18.5824 12.6904C15.9226 12.6904 13.7646 14.8461 13.7646 17.5082C13.7646 20.1679 15.9226 22.3259 18.5824 22.3259C21.2444 22.3259 23.4001 20.1679 23.4001 17.5082C23.4001 14.8461 21.2444 12.6904 18.5824 12.6904ZM18.1108 20.0541L15.6346 17.5337L16.2664 17.0227L17.702 18.147C18.285 17.4524 19.5882 16.061 21.3815 14.9622L21.5325 15.3176C19.8855 16.8322 18.5336 18.96 18.1108 20.0541Z"
        fill="currentColor" />
</svg>