<svg width="currentWidth" height="currentHeight" viewBox="0 0 48 49" fill="none" xmlns="http://www.w3.org/2000/svg">
<g clip-path="url(#clip0_1_8538)">
<path d="M35.2031 26.5737C29.0515 26.5737 24.0469 31.5784 24.0469 37.73C24.0469 43.8816 29.0515 48.8862 35.2031 48.8862C41.4064 48.8862 46.4531 43.8816 46.4531 37.73C46.4531 31.5784 41.4064 26.5737 35.2031 26.5737ZM38.6272 36.3803L34.8772 40.8803C34.6083 41.2029 34.2114 41.3862 33.797 41.3862C33.7431 41.3862 33.689 41.3831 33.6347 41.3769C33.1633 41.3221 32.7513 41.0334 32.539 40.6089L31.039 37.6089C30.6917 36.9143 30.9733 36.0695 31.6679 35.7222C32.3625 35.3747 33.2073 35.6564 33.5546 36.3511L34.093 37.4279L36.4665 34.5797C36.9638 33.9832 37.8505 33.9026 38.4471 34.3996C39.0438 34.8969 39.1244 35.7835 38.6272 36.3803Z" fill="currentColor"/>
<path d="M34.597 8.89745L28.8912 2.99692C28.8885 2.99411 28.8857 2.9912 28.883 2.98839C27.5693 1.65245 25.7412 0.88623 23.8678 0.88623H5.76562C3.43941 0.88623 1.54688 2.77876 1.54688 5.10498V41.5737C1.54688 43.8999 3.43941 45.7925 5.76562 45.7925H23.8022C22.1857 43.5132 21.2344 40.7307 21.2344 37.73C21.2344 30.0276 27.5007 23.7612 35.2031 23.7612C35.6777 23.7612 36.1467 23.785 36.6094 23.8309V13.8219C36.6094 11.9685 35.8947 10.22 34.597 8.89745ZM16.4531 32.2925H8.95312C8.1765 32.2925 7.54688 31.6629 7.54688 30.8862C7.54688 30.1096 8.1765 29.48 8.95312 29.48H16.4531C17.2297 29.48 17.8594 30.1096 17.8594 30.8862C17.8594 31.6629 17.2297 32.2925 16.4531 32.2925ZM16.4531 24.7925H8.95312C8.1765 24.7925 7.54688 24.1629 7.54688 23.3862C7.54688 22.6096 8.1765 21.98 8.95312 21.98H16.4531C17.2297 21.98 17.8594 22.6096 17.8594 23.3862C17.8594 24.1629 17.2297 24.7925 16.4531 24.7925ZM16.4531 17.2925H8.95312C8.1765 17.2925 7.54688 16.6629 7.54688 15.8862C7.54688 15.1096 8.1765 14.48 8.95312 14.48H16.4531C17.2297 14.48 17.8594 15.1096 17.8594 15.8862C17.8594 16.6629 17.2297 17.2925 16.4531 17.2925ZM25.4531 24.7925H23.9531C23.1765 24.7925 22.5469 24.1629 22.5469 23.3862C22.5469 22.6096 23.1765 21.98 23.9531 21.98H25.4531C26.2297 21.98 26.8594 22.6096 26.8594 23.3862C26.8594 24.1629 26.2297 24.7925 25.4531 24.7925ZM25.4531 17.2925H23.9531C23.1765 17.2925 22.5469 16.6629 22.5469 15.8862C22.5469 15.1096 23.1765 14.48 23.9531 14.48H25.4531C26.2297 14.48 26.8594 15.1096 26.8594 15.8862C26.8594 16.6629 26.2297 17.2925 25.4531 17.2925Z" fill="currentColor"/>
</g>
</svg>
