<svg width="22" height="22" viewBox="0 0 22 22" fill="none" xmlns="http://www.w3.org/2000/svg">
<path d="M11 13.7359C9.48123 13.7359 8.25 14.9672 8.25 16.4859V21.9859H13.75V16.4859C13.75 14.9672 12.5188 13.7359 11 13.7359Z" fill="currentColor"/>
<path d="M15.5833 16.4863V21.9863H19.25C20.7688 21.9863 22 20.7551 22 19.2363V10.8754C22.0002 10.3992 21.8151 9.94156 21.4839 9.5994L13.6941 1.17795C12.3196 -0.309195 9.99982 -0.400503 8.51267 0.973981C8.44203 1.03929 8.37396 1.10731 8.30869 1.17795L0.532598 9.59665C0.19134 9.94023 -0.000128841 10.4049 6.50474e-08 10.8891V19.2363C6.50474e-08 20.7551 1.23123 21.9863 2.75 21.9863H6.41665V16.4863C6.4338 13.9867 8.45191 11.9455 10.8885 11.8868C13.4067 11.826 15.5641 13.9019 15.5833 16.4863Z" fill="currentColor"/>
<path d="M11 13.7359C9.48123 13.7359 8.25 14.9672 8.25 16.4859V21.9859H13.75V16.4859C13.75 14.9672 12.5188 13.7359 11 13.7359Z" fill="currentColor"/>
</svg>
