<svg width="23" height="22" viewBox="0 0 23 22" fill="none" xmlns="http://www.w3.org/2000/svg">
<path d="M6.76188 0H4.01188C1.98684 0 0.345215 1.64162 0.345215 3.66666V6.41666C0.345215 8.44171 1.98684 10.0833 4.01188 10.0833H6.76188C8.78692 10.0833 10.4285 8.44171 10.4285 6.41666V3.66666C10.4285 1.64162 8.78692 0 6.76188 0Z" fill="currentColor"/>
<path d="M18.6784 0H15.9284C13.9033 0 12.2617 1.64162 12.2617 3.66667V6.41667C12.2617 8.44171 13.9033 10.0833 15.9284 10.0833H18.6784C20.7034 10.0833 22.345 8.44171 22.345 6.41667V3.66667C22.345 1.64162 20.7034 0 18.6784 0Z" fill="currentColor"/>
<path d="M6.76188 11.9167H4.01188C1.98684 11.9167 0.345215 13.5583 0.345215 15.5833V18.3333C0.345215 20.3584 1.98684 22 4.01188 22H6.76188C8.78692 22 10.4285 20.3584 10.4285 18.3333V15.5833C10.4285 13.5583 8.78692 11.9167 6.76188 11.9167Z" fill="currentColor"/>
<path d="M18.6784 11.9167H15.9284C13.9033 11.9167 12.2617 13.5583 12.2617 15.5833V18.3333C12.2617 20.3584 13.9033 22 15.9284 22H18.6784C20.7034 22 22.345 20.3584 22.345 18.3333V15.5833C22.345 13.5583 20.7034 11.9167 18.6784 11.9167Z" fill="currentColor"/>
</svg>
