<svg width="49" height="49" viewBox="0 0 49 49" fill="none" xmlns="http://www.w3.org/2000/svg">
<g clip-path="url(#clip0_1_4391)">
<path d="M36.7791 12.1751C35.036 12.1636 33.3114 12.5328 31.7258 13.2569C30.1402 13.9811 28.7318 15.0427 27.5991 16.3676L25.8216 18.4151L29.7891 22.9976L32.1291 20.2976C32.7034 19.6272 33.4169 19.09 34.22 18.7235C35.023 18.3569 35.8963 18.1698 36.7791 18.1751C37.571 18.1625 38.3576 18.3077 39.0929 18.602C39.8282 18.8964 40.4976 19.3342 41.0621 19.8898C41.6266 20.4454 42.0749 21.1078 42.3809 21.8383C42.6869 22.5689 42.8444 23.353 42.8444 24.1451C42.8444 24.9371 42.6869 25.7213 42.3809 26.4518C42.0749 27.1824 41.6266 27.8447 41.0621 28.4004C40.4976 28.956 39.8282 29.3937 39.0929 29.6881C38.3576 29.9825 37.571 30.1276 36.7791 30.1151C35.8991 30.1209 35.0286 29.9347 34.228 29.5694C33.4275 29.2041 32.7163 28.6685 32.1441 28.0001C23.4546 17.9666 27.5833 22.7501 22.0641 16.3601C20.9298 15.0375 19.521 13.9779 17.9356 13.2552C16.3502 12.5324 14.6264 12.1638 12.8841 12.1751C9.70942 12.1751 6.66481 13.4362 4.41999 15.681C2.17518 17.9258 0.914063 20.9704 0.914062 24.1451C0.914063 27.3197 2.17518 30.3643 4.41999 32.6091C6.66481 34.8539 9.70942 36.1151 12.8841 36.1151C14.6272 36.1266 16.3517 35.7574 17.9373 35.0332C19.5229 34.3091 20.9313 33.2475 22.0641 31.9226L23.8416 29.8751L19.8741 25.2926L17.5341 27.9926C16.9597 28.663 16.2462 29.2001 15.4432 29.5667C14.6401 29.9332 13.7668 30.1204 12.8841 30.1151C12.0921 30.1276 11.3056 29.9825 10.5703 29.6881C9.83494 29.3937 9.16555 28.956 8.60106 28.4004C8.03658 27.8447 7.58828 27.1824 7.28227 26.4518C6.97627 25.7213 6.81868 24.9371 6.81868 24.1451C6.81868 23.353 6.97627 22.5689 7.28227 21.8383C7.58828 21.1078 8.03658 20.4454 8.60106 19.8898C9.16555 19.3342 9.83494 18.8964 10.5703 18.602C11.3056 18.3077 12.0921 18.1625 12.8841 18.1751C13.764 18.1692 14.6346 18.3555 15.4351 18.7208C16.2356 19.0861 16.9468 19.6216 17.5191 20.2901C26.2086 30.3236 22.0798 25.5401 27.5991 31.9301C28.8997 33.4794 30.5702 34.6755 32.4559 35.4077C34.3416 36.1399 36.3816 36.3845 38.3869 36.1189C40.3923 35.8533 42.2982 35.0861 43.9283 33.8882C45.5584 32.6904 46.8599 31.1006 47.7124 29.2661C48.5648 27.4316 48.9407 25.4117 48.8052 23.3934C48.6696 21.3751 48.0271 19.4236 46.937 17.7195C45.8469 16.0155 44.3445 14.614 42.5689 13.6449C40.7933 12.6757 38.8019 12.1702 36.7791 12.1751Z" fill="currentColor"/>
</g>
</svg>
