<svg width="31" height="31" viewBox="0 0 31 31" fill="none">
  <rect x="0.591797" y="0.573242" width="30" height="30" rx="15" fill="url(#paint0_linear_1_3215)" />
  <g clip-path="url(#clip0_1_3215)">
    <path
      d="M15.5931 10.9521C13.0409 10.9521 10.9746 13.0206 10.9746 15.5707C10.9746 18.1229 13.0431 20.1892 15.5931 20.1892C18.1454 20.1892 20.2116 18.1207 20.2116 15.5707C20.2116 13.0184 18.1431 10.9521 15.5931 10.9521ZM15.5931 18.5684C13.9364 18.5684 12.5954 17.2267 12.5954 15.5707C12.5954 13.9146 13.9371 12.5729 15.5931 12.5729C17.2491 12.5729 18.5909 13.9146 18.5909 15.5707C18.5916 17.2267 17.2499 18.5684 15.5931 18.5684Z"
      fill="white" />
    <path
      d="M19.303 6.63369C17.647 6.55644 13.5452 6.56019 11.8877 6.63369C10.4312 6.70194 9.14647 7.05369 8.11072 8.08944C6.37972 9.82044 6.60097 12.1529 6.60097 15.5737C6.60097 19.0747 6.40597 21.3532 8.11072 23.0579C9.84847 24.7949 12.2147 24.5677 15.595 24.5677C19.063 24.5677 20.26 24.5699 21.4862 24.0952C23.1535 23.4479 24.412 21.9577 24.535 19.2809C24.613 17.6242 24.6085 13.5232 24.535 11.8657C24.3865 8.70594 22.6907 6.78969 19.303 6.63369ZM21.9242 21.9127C20.7895 23.0474 19.2152 22.9462 15.5732 22.9462C11.8232 22.9462 10.3195 23.0017 9.22222 21.9014C7.95847 20.6437 8.18722 18.6239 8.18722 15.5617C8.18722 11.4179 7.76197 8.43369 11.9207 8.22069C12.8762 8.18694 13.1575 8.17569 15.5627 8.17569L15.5965 8.19819C19.5932 8.19819 22.729 7.77969 22.9172 11.9377C22.96 12.8864 22.9697 13.1714 22.9697 15.5729C22.969 19.2794 23.0395 20.7922 21.9242 21.9127Z"
      fill="white" />
    <path
      d="M20.3976 11.8489C20.9937 11.8489 21.4769 11.3657 21.4769 10.7697C21.4769 10.1736 20.9937 9.69043 20.3976 9.69043C19.8016 9.69043 19.3184 10.1736 19.3184 10.7697C19.3184 11.3657 19.8016 11.8489 20.3976 11.8489Z"
      fill="white" />
  </g>
  <defs>
    <linearGradient id="paint0_linear_1_3215" x1="28.4489" y1="-3.80176" x2="-8.59986" y2="20.0398"
      gradientUnits="userSpaceOnUse">
      <stop stop-color="#A831BF" />
      <stop offset="0.510417" stop-color="#F14C59" />
      <stop offset="1" stop-color="#FFBC4F" />
    </linearGradient>
    <clipPath id="clip0_1_3215">
      <rect width="18" height="18" fill="white" transform="translate(6.5918 6.57324)" />
    </clipPath>
  </defs>
</svg>