<svg width="31" height="31" viewBox="0 0 31 31" fill="#0073B4">
  <rect x="0.591797" y="0.573242" width="30" height="30" rx="15" />
  <path
    d="M23.0918 17.1936V22.74H19.8761V17.5653C19.8761 16.266 19.4118 15.3787 18.2475 15.3787C17.359 15.3787 16.8312 15.976 16.5981 16.5545C16.5134 16.7612 16.4916 17.0483 16.4916 17.3382V22.7398H13.2757C13.2757 22.7398 13.3188 13.9755 13.2757 13.0683H16.4918V14.4388C16.4854 14.4496 16.4762 14.4602 16.4705 14.4705H16.4918V14.4388C16.9192 13.7812 17.6813 12.8412 19.39 12.8412C21.5057 12.8412 23.0918 14.2235 23.0918 17.1936ZM9.91152 8.40625C8.81148 8.40625 8.0918 9.12834 8.0918 10.077C8.0918 11.0056 8.79062 11.7486 9.86931 11.7486H9.89018C11.0118 11.7486 11.7092 11.0056 11.7092 10.077C11.6878 9.12834 11.0118 8.40625 9.91152 8.40625ZM8.28293 22.74H11.4977V13.0683H8.28293V22.74Z"
    fill="#F1F2F2" />
</svg>