<svg width="132" height="29" viewBox="0 0 132 29" fill="none" xmlns="http://www.w3.org/2000/svg">
  <path
    d="M0.981534 28V1.81818H19.2372V6.95739H7.30966V12.3267H18.304V17.4787H7.30966V22.8608H19.2372V28H0.981534ZM40.3438 14.3594L34.6037 14.5128C34.544 14.1037 34.3821 13.7415 34.1179 13.4261C33.8537 13.1023 33.5085 12.8509 33.0824 12.6719C32.6648 12.4844 32.179 12.3906 31.625 12.3906C30.9006 12.3906 30.2827 12.5355 29.7713 12.8253C29.2685 13.1151 29.0213 13.5071 29.0298 14.0014C29.0213 14.3849 29.1747 14.7173 29.4901 14.9986C29.8139 15.2798 30.3892 15.5057 31.2159 15.6761L35 16.392C36.9602 16.767 38.4176 17.3892 39.3722 18.2585C40.3352 19.1278 40.821 20.2784 40.8295 21.7102C40.821 23.0568 40.4205 24.2287 39.6278 25.2259C38.8438 26.223 37.7699 26.9986 36.4062 27.5526C35.0426 28.098 33.483 28.3707 31.7273 28.3707C28.9233 28.3707 26.7116 27.7955 25.0923 26.6449C23.4815 25.4858 22.5611 23.9347 22.331 21.9915L28.5057 21.8381C28.642 22.554 28.9957 23.0994 29.5668 23.4744C30.1378 23.8494 30.8665 24.0369 31.7528 24.0369C32.554 24.0369 33.206 23.8878 33.7088 23.5895C34.2116 23.2912 34.4673 22.8949 34.4759 22.4006C34.4673 21.9574 34.2713 21.6037 33.8878 21.3395C33.5043 21.0668 32.9034 20.8537 32.0852 20.7003L28.6591 20.0483C26.6903 19.6903 25.2244 19.0298 24.2614 18.0668C23.2983 17.0952 22.821 15.8594 22.8295 14.3594C22.821 13.0469 23.1705 11.9261 23.8778 10.9972C24.5852 10.0597 25.5909 9.34375 26.8949 8.84943C28.1989 8.35511 29.7372 8.10795 31.5099 8.10795C34.169 8.10795 36.2656 8.66619 37.7997 9.78267C39.3338 10.8906 40.1818 12.4162 40.3438 14.3594ZM54.9911 8.36364V12.9659H42.6033V8.36364H54.9911ZM45.1985 3.65909H51.4499V21.8253C51.4499 22.2088 51.5096 22.5199 51.6289 22.7585C51.7567 22.9886 51.94 23.1548 52.1786 23.2571C52.4173 23.3509 52.7028 23.3977 53.0352 23.3977C53.2738 23.3977 53.5252 23.3764 53.7894 23.3338C54.0621 23.2827 54.2667 23.2401 54.4031 23.206L55.3491 27.7188C55.0508 27.804 54.6289 27.9105 54.0835 28.0384C53.5465 28.1662 52.9031 28.2472 52.1531 28.2812C50.6871 28.3494 49.43 28.179 48.3817 27.7699C47.342 27.3523 46.5451 26.7045 45.9911 25.8267C45.4457 24.9489 45.1815 23.8452 45.1985 22.5156V3.65909ZM63.7163 28.3324C62.4634 28.3324 61.3512 28.1236 60.3796 27.706C59.4165 27.2798 58.6538 26.6406 58.0913 25.7884C57.5373 24.9276 57.2603 23.8494 57.2603 22.554C57.2603 21.4631 57.4521 20.5426 57.8356 19.7926C58.2191 19.0426 58.7475 18.4332 59.4208 17.9645C60.0941 17.4957 60.8697 17.142 61.7475 16.9034C62.6254 16.6562 63.5629 16.4901 64.56 16.4048C65.6765 16.3026 66.5756 16.196 67.2575 16.0852C67.9393 15.9659 68.4336 15.7997 68.7404 15.5866C69.0558 15.3651 69.2134 15.054 69.2134 14.6534V14.5895C69.2134 13.9332 68.9876 13.4261 68.5359 13.0682C68.0842 12.7102 67.4748 12.5312 66.7077 12.5312C65.881 12.5312 65.2163 12.7102 64.7134 13.0682C64.2106 13.4261 63.891 13.9205 63.7546 14.5511L57.989 14.3466C58.1594 13.1534 58.5984 12.0881 59.3058 11.1506C60.0217 10.2045 61.0018 9.46307 62.2461 8.92614C63.4989 8.38068 65.0032 8.10795 66.7589 8.10795C68.0117 8.10795 69.1665 8.2571 70.2234 8.5554C71.2802 8.84517 72.2006 9.27131 72.9847 9.83381C73.7688 10.3878 74.3739 11.0696 74.8001 11.8793C75.2347 12.6889 75.4521 13.6136 75.4521 14.6534V28H69.5714V25.2642H69.418C69.0685 25.929 68.6211 26.4915 68.0756 26.9517C67.5387 27.4119 66.9038 27.7571 66.1708 27.9872C65.4464 28.2173 64.6282 28.3324 63.7163 28.3324ZM65.6467 24.2415C66.32 24.2415 66.9251 24.1051 67.462 23.8324C68.0075 23.5597 68.4421 23.1847 68.766 22.7074C69.0898 22.2216 69.2518 21.6591 69.2518 21.0199V19.1534C69.0728 19.2472 68.8555 19.3324 68.5998 19.4091C68.3526 19.4858 68.0799 19.5582 67.7816 19.6264C67.4833 19.6946 67.1765 19.7543 66.8612 19.8054C66.5458 19.8565 66.2433 19.9034 65.9535 19.946C65.3654 20.0398 64.8626 20.1847 64.445 20.3807C64.0359 20.5767 63.7205 20.8324 63.4989 21.1477C63.2859 21.4545 63.1793 21.821 63.1793 22.2472C63.1793 22.8949 63.4094 23.3892 63.8697 23.7301C64.3384 24.071 64.9308 24.2415 65.6467 24.2415ZM86.4464 28.2812C84.9975 28.2812 83.6808 27.9062 82.4961 27.1562C81.3114 26.4062 80.3654 25.2812 79.658 23.7812C78.9506 22.2812 78.5969 20.419 78.5969 18.1946C78.5969 15.8849 78.9634 13.9844 79.6964 12.4929C80.4293 11.0014 81.3881 9.89773 82.5728 9.18182C83.766 8.46591 85.0487 8.10795 86.4208 8.10795C87.4521 8.10795 88.3342 8.28693 89.0671 8.64489C89.8001 8.99432 90.4052 9.44602 90.8825 10C91.3597 10.554 91.7219 11.1293 91.9691 11.7259H92.0969V1.81818H98.3484V28H92.1609V24.8168H91.9691C91.7049 25.4219 91.3299 25.9886 90.8441 26.517C90.3583 27.0455 89.7489 27.4716 89.016 27.7955C88.2915 28.1193 87.435 28.2812 86.4464 28.2812ZM88.6197 23.4105C89.3782 23.4105 90.0259 23.1974 90.5629 22.7713C91.0998 22.3366 91.5131 21.7273 91.8029 20.9432C92.0927 20.1591 92.2376 19.2386 92.2376 18.1818C92.2376 17.108 92.0927 16.1832 91.8029 15.4077C91.5217 14.6321 91.1083 14.0355 90.5629 13.6179C90.0259 13.2003 89.3782 12.9915 88.6197 12.9915C87.8441 12.9915 87.1879 13.2045 86.6509 13.6307C86.114 14.0568 85.7049 14.6577 85.4237 15.4332C85.1509 16.2088 85.0146 17.125 85.0146 18.1818C85.0146 19.2386 85.1552 20.1591 85.4364 20.9432C85.7177 21.7273 86.1225 22.3366 86.6509 22.7713C87.1879 23.1974 87.8441 23.4105 88.6197 23.4105ZM102.302 28V8.36364H108.553V28H102.302ZM105.434 6.07528C104.556 6.07528 103.802 5.78551 103.171 5.20597C102.54 4.6179 102.225 3.91051 102.225 3.08381C102.225 2.26562 102.54 1.56676 103.171 0.987216C103.802 0.399147 104.556 0.105112 105.434 0.105112C106.32 0.105112 107.075 0.399147 107.697 0.987216C108.327 1.56676 108.643 2.26562 108.643 3.08381C108.643 3.91051 108.327 4.6179 107.697 5.20597C107.075 5.78551 106.32 6.07528 105.434 6.07528ZM121.699 28.3707C119.636 28.3707 117.863 27.9489 116.38 27.1051C114.906 26.2528 113.768 25.0682 112.967 23.5511C112.174 22.0256 111.778 20.2571 111.778 18.2457C111.778 16.2259 112.174 14.4574 112.967 12.9403C113.768 11.4148 114.906 10.2301 116.38 9.38636C117.863 8.53409 119.636 8.10795 121.699 8.10795C123.761 8.10795 125.529 8.53409 127.004 9.38636C128.487 10.2301 129.625 11.4148 130.417 12.9403C131.218 14.4574 131.619 16.2259 131.619 18.2457C131.619 20.2571 131.218 22.0256 130.417 23.5511C129.625 25.0682 128.487 26.2528 127.004 27.1051C125.529 27.9489 123.761 28.3707 121.699 28.3707ZM121.737 23.6534C122.487 23.6534 123.122 23.4233 123.642 22.9631C124.162 22.5028 124.558 21.8636 124.831 21.0455C125.112 20.2273 125.252 19.2812 125.252 18.2074C125.252 17.1165 125.112 16.1619 124.831 15.3438C124.558 14.5256 124.162 13.8864 123.642 13.4261C123.122 12.9659 122.487 12.7358 121.737 12.7358C120.961 12.7358 120.305 12.9659 119.768 13.4261C119.24 13.8864 118.835 14.5256 118.554 15.3438C118.281 16.1619 118.145 17.1165 118.145 18.2074C118.145 19.2812 118.281 20.2273 118.554 21.0455C118.835 21.8636 119.24 22.5028 119.768 22.9631C120.305 23.4233 120.961 23.6534 121.737 23.6534Z"
    fill="#060606" />
</svg>
  