<svg width="25" height="24" viewBox="0 0 25 24" fill="none" xmlns="http://www.w3.org/2000/svg">
<path d="M7.76188 1H5.01188C2.98684 1 1.34521 2.64162 1.34521 4.66666V7.41666C1.34521 9.44171 2.98684 11.0833 5.01188 11.0833H7.76188C9.78692 11.0833 11.4285 9.44171 11.4285 7.41666V4.66666C11.4285 2.64162 9.78692 1 7.76188 1Z" fill="currentColor"/>
<path d="M19.6784 1H16.9284C14.9033 1 13.2617 2.64162 13.2617 4.66667V7.41667C13.2617 9.44171 14.9033 11.0833 16.9284 11.0833H19.6784C21.7034 11.0833 23.345 9.44171 23.345 7.41667V4.66667C23.345 2.64162 21.7034 1 19.6784 1Z" fill="currentColor"/>
<path d="M7.76188 12.9167H5.01188C2.98684 12.9167 1.34521 14.5583 1.34521 16.5833V19.3333C1.34521 21.3584 2.98684 23 5.01188 23H7.76188C9.78692 23 11.4285 21.3584 11.4285 19.3333V16.5833C11.4285 14.5583 9.78692 12.9167 7.76188 12.9167Z" fill="currentColor"/>
<path d="M19.6784 12.9167H16.9284C14.9033 12.9167 13.2617 14.5583 13.2617 16.5833V19.3333C13.2617 21.3584 14.9033 23 16.9284 23H19.6784C21.7034 23 23.345 21.3584 23.345 19.3333V16.5833C23.345 14.5583 21.7034 12.9167 19.6784 12.9167Z" fill="currentColor"/>
</svg>
