<svg width="49" height="48" viewBox="0 0 49 48" fill="none" xmlns="http://www.w3.org/2000/svg">
    <path
        d="M45.2578 40.5C45.2578 41.3295 44.5858 42 43.7578 42H14.9818C14.3608 43.7415 12.7108 45 10.7578 45C8.80481 45 7.15481 43.7415 6.53381 42H4.75781C3.92981 42 3.25781 41.3295 3.25781 40.5C3.25781 39.6705 3.92981 39 4.75781 39H6.53381C7.15481 37.2585 8.80481 36 10.7578 36C12.7108 36 14.3608 37.2585 14.9818 39H43.7578C44.5858 39 45.2578 39.6705 45.2578 40.5ZM21.2578 22.5825L28.6663 18L21.2503 13.413L21.2578 22.5825ZM45.2578 7.5V28.5C45.2578 30.981 43.2388 33 40.7578 33H7.75781C5.27681 33 3.25781 30.981 3.25781 28.5V7.5C3.25781 5.019 5.27681 3 7.75781 3H40.7578C43.2388 3 45.2578 5.019 45.2578 7.5ZM31.6648 18C31.6648 16.953 31.1338 16.0005 30.2428 15.4485L22.8343 10.866C21.9118 10.2945 20.7463 10.2675 19.7968 10.797C18.8473 11.3265 18.2578 12.33 18.2578 13.4175V22.5825C18.2578 23.67 18.8488 24.675 19.7968 25.203C20.2513 25.4565 20.7538 25.581 21.2563 25.581C21.8053 25.581 22.3528 25.431 22.8343 25.134L30.2428 20.55C31.1323 19.9995 31.6633 19.0455 31.6633 17.9985L31.6648 18Z"
        fill="currentColor" />
</svg>
