<svg width="25" height="25" viewBox="0 0 25 25" fill="currentColor" xmlns="http://www.w3.org/2000/svg">
  <path fill-rule="evenodd" clip-rule="evenodd"
    d="M11.2123 3.66185C11.2123 3.06063 11.6997 2.57324 12.301 2.57324C13.6829 2.57324 15.0513 2.84543 16.328 3.37428C17.6048 3.90311 18.7648 4.67825 19.742 5.65543C20.7192 6.6326 21.4943 7.79268 22.0232 9.06942C22.552 10.3462 22.8242 11.7146 22.8242 13.0965C22.8242 13.6977 22.3368 14.1851 21.7356 14.1851C21.1344 14.1851 20.647 13.6977 20.647 13.0965C20.647 12.0005 20.4311 10.9152 20.0117 9.9026C19.5923 8.89002 18.9775 7.96997 18.2025 7.19496C17.4275 6.41996 16.5074 5.8052 15.4948 5.38578C14.4823 4.96634 13.397 4.75046 12.301 4.75046C11.6997 4.75046 11.2123 4.26308 11.2123 3.66185ZM12.7711 21.9493C13.5235 22.4338 14.4191 22.6461 15.309 22.5511C16.1989 22.456 17.0294 22.0593 17.6626 21.4267L18.2141 20.8752C18.4588 20.6278 18.596 20.294 18.596 19.9462C18.596 19.5983 18.4588 19.2646 18.2141 19.0173L15.8918 16.7094C15.6469 16.4657 15.3155 16.3288 14.9701 16.3288C14.6246 16.3288 14.2932 16.4657 14.0484 16.7094C13.8011 16.954 13.4673 17.0913 13.1194 17.0913C12.7716 17.0913 12.4378 16.954 12.1905 16.7094L8.4892 13.0081C8.24451 12.7608 8.10735 12.427 8.10735 12.0792C8.10735 11.7313 8.24451 11.3975 8.4892 11.1502C8.73295 10.9054 8.8698 10.574 8.8698 10.2285C8.8698 9.88307 8.73295 9.55166 8.4892 9.30684L6.25395 6.98447C6.00662 6.73982 5.67277 6.60261 5.325 6.60261C4.97708 6.60261 4.64324 6.73982 4.39605 6.98447L3.84449 7.53603C3.20061 8.16023 2.79027 8.98635 2.68199 9.87655C2.57371 10.7667 2.77387 11.6672 3.24938 12.4275C5.78033 16.1851 9.01351 19.4183 12.7711 21.9493ZM11.8453 6.77164C11.244 6.77164 10.7566 7.25903 10.7566 7.86025C10.7566 8.46147 11.244 8.94886 11.8453 8.94886C13.0964 8.94886 14.2962 9.44586 15.1809 10.3305C16.0656 11.2152 16.5626 12.4151 16.5626 13.6662C16.5626 14.2674 17.05 14.7548 17.6512 14.7548C18.2524 14.7548 18.7398 14.2674 18.7398 13.6662C18.7398 11.8376 18.0134 10.084 16.7204 8.791C15.4275 7.49802 13.6738 6.77164 11.8453 6.77164Z"
    fill="currentColor" />
</svg>
