<svg xmlns="http://www.w3.org/2000/svg" width="24" height="25" viewBox="0 0 24 25" fill="none">
    <path
        d="M15.3223 1.64551C14.3045 1.64551 13.4766 2.47349 13.4766 3.49121V4.7627H14.707V3.49121C14.707 3.15197 14.983 2.87598 15.3223 2.87598C15.6615 2.87598 15.9375 3.15197 15.9375 3.49121V9.2334C15.9375 9.82144 15.4591 10.2998 14.8711 10.2998C14.2831 10.2998 13.8047 9.82144 13.8047 9.2334V6.6084H12.5742V9.2334C12.5742 10.4999 13.6046 11.5303 14.8711 11.5303C16.1376 11.5303 17.168 10.4999 17.168 9.2334V3.49121C17.168 2.47349 16.34 1.64551 15.3223 1.64551Z"
        fill="currentColor" />
    <path
        d="M17.9145 17.1418C17.2113 16.6057 16.2664 16.5523 15.5073 17.0058L14.1869 17.7946L11.9507 15.833L8.96484 17.846V18.9543H18.8086V17.8234L17.9145 17.1418Z"
        fill="currentColor" />
    <path
        d="M18.3984 7.83887V9.2334C18.3984 11.1784 16.8161 12.7607 14.8711 12.7607C12.9261 12.7607 11.3438 11.1784 11.3438 9.2334V7.83887H5.27344V22.6455H22.5V7.83887H18.3984ZM9.58008 10.2998C10.5978 10.2998 11.4258 11.1278 11.4258 12.1455C11.4258 13.1632 10.5978 13.9912 9.58008 13.9912C8.56236 13.9912 7.73438 13.1632 7.73438 12.1455C7.73438 11.1278 8.56236 10.2998 9.58008 10.2998ZM20.0391 20.1846H7.73438V17.1913L12.0493 14.2824L14.3248 16.2787L14.8762 15.9493C16.0696 15.2365 17.555 15.3204 18.6605 16.1631L20.0391 17.2139V20.1846Z"
        fill="currentColor" />
    <path
        d="M9.58008 11.5303C9.24084 11.5303 8.96484 11.8063 8.96484 12.1455C8.96484 12.4847 9.24084 12.7607 9.58008 12.7607C9.91932 12.7607 10.1953 12.4847 10.1953 12.1455C10.1953 11.8063 9.91932 11.5303 9.58008 11.5303Z"
        fill="currentColor" />
    <path
        d="M12.0029 4.10645L10.6494 2.46582H3.3457C2.32798 2.46582 1.5 3.2938 1.5 4.31152V15.3857C1.5 16.4035 2.32798 17.2314 3.3457 17.2314H4.04297V6.6084H11.3438V5.37793H12.2461V4.10645H12.0029Z"
        fill="currentColor" />
    <path
        d="M18.3984 4.11816V6.60847H20.0391V5.95222C20.0391 5.00381 19.32 4.22058 18.3984 4.11816Z"
        fill="currentColor" />
</svg>