<svg width="47" height="47" viewBox="0 0 47 47" fill="none" xmlns="http://www.w3.org/2000/svg">
    <path
        d="M32.547 3.19939C30.5245 2.97003 28.6925 4.42885 28.4632 6.45133L28.1766 8.9781L30.6219 9.25541L30.9084 6.72864C30.9849 6.05448 31.5956 5.5682 32.2697 5.64466C32.9439 5.72111 33.4302 6.33178 33.3537 7.00594L32.0596 18.4172C31.9271 19.5858 30.8686 20.4286 29.7 20.2961C28.5315 20.1635 27.6886 19.1051 27.8211 17.9365L28.4127 12.7199L25.9675 12.4426L25.3759 17.6592C25.0905 20.1761 26.9058 22.4559 29.4227 22.7413C31.9397 23.0268 34.2194 21.2114 34.5049 18.6945L35.799 7.28325C36.0283 5.26077 34.5695 3.42875 32.547 3.19939Z"
        fill="currentColor" />
    <path
        d="M34.2053 34.5788C32.9286 33.355 31.0629 33.036 29.4521 33.7661L26.6503 35.036L22.6486 30.6339L16.2612 33.9612L16.0114 36.1638L35.5735 38.3822L35.8284 36.1348L34.2053 34.5788Z"
        fill="currentColor" />
    <path
        d="M37.2625 16.2001L36.9482 18.9714C36.5099 22.8366 33.0087 25.6246 29.1435 25.1862C25.2783 24.7479 22.4904 21.2468 22.9287 17.3815L23.243 14.6102L11.1797 13.2422L7.84278 42.6669L42.0765 46.5491L45.4134 17.1245L37.2625 16.2001ZM19.1835 19.1033C21.206 19.3326 22.6648 21.1647 22.4354 23.1871C22.2061 25.2096 20.3741 26.6684 18.3516 26.4391C16.3291 26.2097 14.8703 24.3777 15.0996 22.3552C15.329 20.3327 17.161 18.8739 19.1835 19.1033ZM37.7406 41.104L13.2879 38.3309L13.9625 32.3826L23.1929 27.5743L27.2652 32.0543L28.4351 31.524C30.9673 30.3763 33.9004 30.8778 35.9073 32.8016L38.41 35.2006L37.7406 41.104Z"
        fill="currentColor" />
    <path
        d="M18.9062 21.5488C18.2321 21.4724 17.6214 21.9586 17.5449 22.6328C17.4685 23.3069 17.9548 23.9176 18.6289 23.9941C19.3031 24.0705 19.9138 23.5843 19.9902 22.9101C20.0667 22.2359 19.5804 21.6253 18.9062 21.5488Z"
        fill="currentColor" />
    <path
        d="M25.3968 7.34122L23.0768 3.77583L8.56243 2.12983C6.53995 1.90047 4.70793 3.35929 4.47857 5.38176L1.98282 27.3891C1.75346 29.4116 3.21228 31.2436 5.23476 31.473L6.62041 31.6301L9.01448 10.5194L23.523 12.1647L23.8004 9.71944L25.5935 9.9228L25.8801 7.39602L25.3968 7.34122Z"
        fill="currentColor" />
    <path
        d="M38.1016 8.80566L37.5403 13.7546L40.8007 14.1243L40.9486 12.8202C41.1623 10.9354 39.9098 9.21688 38.1016 8.80566Z"
        fill="currentColor" />
</svg>
