<svg width="24" height="25" viewBox="0 0 24 25" fill="none" xmlns="http://www.w3.org/2000/svg">
<path d="M21.7495 21.19L16.0855 15.526C17.4466 13.8919 18.1253 11.7961 17.9805 9.67438C17.8356 7.55268 16.8784 5.5685 15.3079 4.13459C13.7374 2.70068 11.6745 1.92746 9.54844 1.97577C7.42236 2.02408 5.39674 2.8902 3.89298 4.39396C2.38922 5.89772 1.5231 7.92333 1.47479 10.0494C1.42648 12.1755 2.19971 14.2384 3.63361 15.8089C5.06752 17.3794 7.0517 18.3366 9.1734 18.4815C11.2951 18.6263 13.391 17.9475 15.025 16.5865L20.689 22.2505L21.7495 21.19ZM2.99948 10.2505C2.99948 8.91543 3.39536 7.61039 4.13706 6.50035C4.87876 5.39032 5.93296 4.52516 7.16636 4.01427C8.39976 3.50337 9.75696 3.3697 11.0663 3.63015C12.3757 3.8906 13.5784 4.53348 14.5224 5.47748C15.4665 6.42149 16.1093 7.62422 16.3698 8.93359C16.6302 10.243 16.4966 11.6002 15.9857 12.8336C15.4748 14.067 14.6096 15.1212 13.4996 15.8629C12.3895 16.6046 11.0845 17.0005 9.74948 17.0005C7.95987 16.9985 6.24414 16.2867 4.9787 15.0212C3.71326 13.7558 3.00146 12.0401 2.99948 10.2505Z" fill="currentColor"/>
</svg>
