<svg xmlns="http://www.w3.org/2000/svg" width="24" height="25" viewBox="0 0 24 25" fill="none">
    <path d="M11.2939 16.3799H12.7057V17.7916H11.2939V16.3799Z" fill="currentColor" />
    <path d="M9.88281 13.5566H14.1181V14.9684H9.88281V13.5566Z" fill="currentColor" />
    <path
        d="M17.3408 5.79211L15.2232 2.2627H8.77685L6.6592 5.79211H0V10.6095L0.232094 10.6446L9.23482 12.145H14.7651C14.8133 12.137 13.988 12.2747 24 10.6045V5.79211H17.3408ZM8.30551 5.79211L9.57609 3.67446H14.4239L15.6944 5.79211H8.30551Z"
        fill="currentColor" />
    <path
        d="M15.5298 16.3804H14.118V19.2039H9.8827V16.3804H8.47093V13.4489L1.41211 12.2725V22.0274H22.5886V12.2725L15.5298 13.4489V16.3804Z"
        fill="currentColor" />

</svg>