<svg width="18" height="17" viewBox="0 0 18 17">
  <path
    d="M8.30756 0.636729C8.56419 0.0219578 9.43516 0.0219598 9.69179 0.636731L11.3835 4.6892C11.486 4.93489 11.7112 5.10779 11.975 5.1435L16.4539 5.7497C17.1041 5.8377 17.3358 6.65919 16.8275 7.074L13.3774 9.8894C13.1559 10.0701 13.0564 10.3611 13.1209 10.6396L14.2234 15.404C14.3785 16.0741 13.6249 16.5821 13.0619 16.1869L9.43054 13.6383C9.17196 13.4568 8.82739 13.4568 8.56881 13.6383L4.93744 16.187C4.3744 16.5821 3.62081 16.0742 3.77588 15.404L4.87834 10.6396C4.94279 10.3611 4.84331 10.0701 4.62184 9.88941L1.17181 7.074C0.663484 6.65918 0.89523 5.8377 1.5454 5.7497L6.02434 5.1435C6.28818 5.10779 6.5133 4.93489 6.61587 4.6892L8.30756 0.636729Z"
    fill="currentColor" />
</svg>