<svg width="33" height="33" viewBox="0 0 33 33" fill="none" xmlns="http://www.w3.org/2000/svg">
  <g opacity="0.4">
    <mask id="path-1-inside-1_1_4346" fill="white">
      <path
        d="M6.35898 16.5732C5.89035 16.5732 5.50714 16.9537 5.54224 17.421C5.74431 20.1115 6.90314 22.6522 8.82413 24.5732C10.7451 26.4941 13.2858 27.653 15.9763 27.855C16.4436 27.8901 16.824 27.5069 16.824 27.0383C16.824 26.5697 16.4433 26.1937 15.9765 26.1524C13.7367 25.9543 11.6267 24.9758 10.0241 23.3732C8.42151 21.7706 7.44297 19.6606 7.24488 17.4207C7.2036 16.9539 6.8276 16.5732 6.35898 16.5732Z" />
    </mask>
    <path
      d="M6.35898 16.5732C5.89035 16.5732 5.50714 16.9537 5.54224 17.421C5.74431 20.1115 6.90314 22.6522 8.82413 24.5732C10.7451 26.4941 13.2858 27.653 15.9763 27.855C16.4436 27.8901 16.824 27.5069 16.824 27.0383C16.824 26.5697 16.4433 26.1937 15.9765 26.1524C13.7367 25.9543 11.6267 24.9758 10.0241 23.3732C8.42151 21.7706 7.44297 19.6606 7.24488 17.4207C7.2036 16.9539 6.8276 16.5732 6.35898 16.5732Z"
      stroke="#333333" stroke-width="4" mask="url(#path-1-inside-1_1_4346)" />
  </g>
  <g opacity="0.4">
    <mask id="path-2-inside-2_1_4346" fill="white">
      <path
        d="M16.8242 6.108C16.8242 5.63937 17.2047 5.25617 17.672 5.29126C20.3625 5.49333 22.9031 6.65216 24.8241 8.57315C26.7451 10.4941 27.9039 13.0348 28.106 15.7253C28.1411 16.1926 27.7579 16.5731 27.2893 16.5731C26.8207 16.5731 26.4447 16.1924 26.4034 15.7256C26.2053 13.4857 25.2267 11.3757 23.6241 9.77314C22.0215 8.17053 19.9115 7.19199 17.6717 6.99391C17.2049 6.95263 16.8242 6.57662 16.8242 6.108Z" />
    </mask>
    <path
      d="M16.8242 6.108C16.8242 5.63937 17.2047 5.25617 17.672 5.29126C20.3625 5.49333 22.9031 6.65216 24.8241 8.57315C26.7451 10.4941 27.9039 13.0348 28.106 15.7253C28.1411 16.1926 27.7579 16.5731 27.2893 16.5731C26.8207 16.5731 26.4447 16.1924 26.4034 15.7256C26.2053 13.4857 25.2267 11.3757 23.6241 9.77314C22.0215 8.17053 19.9115 7.19199 17.6717 6.99391C17.2049 6.95263 16.8242 6.57662 16.8242 6.108Z"
      stroke="#333333" stroke-width="6" mask="url(#path-2-inside-2_1_4346)" />
  </g>
  <path
    d="M16.3718 10.4728C16.5514 10.0881 17.0984 10.0881 17.278 10.4728L18.998 14.1582C19.0476 14.2646 19.1332 14.3502 19.2396 14.3999L22.9251 16.1199C23.3098 16.2994 23.3098 16.8465 22.9251 17.026L19.2396 18.746C19.1332 18.7957 19.0476 18.8812 18.998 18.9877L17.278 22.6731C17.0984 23.0578 16.5514 23.0578 16.3718 22.6731L14.6518 18.9877C14.6021 18.8812 14.5166 18.7957 14.4102 18.746L10.7247 17.026C10.34 16.8465 10.34 16.2994 10.7247 16.1199L14.4102 14.3999C14.5166 14.3502 14.6021 14.2646 14.6518 14.1582L16.3718 10.4728Z"
    fill="currentColor" />
</svg>