<svg width="24" height="24" viewBox="0 0 24 24" fill="none" xmlns="http://www.w3.org/2000/svg">
<path fill-rule="evenodd" clip-rule="evenodd" d="M24 12C23.9999 10.1436 23.569 8.31248 22.7413 6.65077C21.9137 4.98906 20.7117 3.54204 19.2301 2.42353C17.7485 1.30502 16.0275 0.545516 14.2026 0.204765C12.3777 -0.135986 10.4987 -0.0486929 8.71324 0.459777C6.9278 0.968248 5.28468 1.88403 3.91312 3.13509C2.54156 4.38615 1.47897 5.93837 0.808915 7.66966C0.138863 9.40094 -0.120371 11.2641 0.0516026 13.1125C0.223576 14.961 0.822068 16.7443 1.8 18.3223C2.87558 20.0593 4.37719 21.4927 6.16233 22.4864C7.94748 23.48 9.95693 24.0011 12 24C15.1826 24 18.2348 22.7357 20.4853 20.4853C22.7357 18.2348 24 15.1826 24 12ZM12 21.4286C12.9184 21.4299 13.832 21.2971 14.712 21.0343C13.9697 17.6657 11.6983 14.8937 7.836 14.8937C6.21429 14.8937 4.81543 15.4509 3.64114 16.368C4.4392 17.8946 5.64024 19.1734 7.11386 20.0656C8.58748 20.9577 10.2774 21.4291 12 21.4286ZM16.4469 20.316C18.1782 19.3871 19.5777 17.9426 20.4514 16.1828C19.5158 15.6017 18.4463 15.2713 17.3459 15.2232C16.2455 15.1752 15.1513 15.4112 14.1686 15.9086C14.2491 15.9977 14.3297 16.0886 14.4069 16.1828C15.4063 17.3794 16.0697 18.8177 16.4451 20.3177L16.4469 20.316ZM8.10686 5.55942C9.12756 5.55942 10.1065 5.96489 10.8282 6.68664C11.55 7.40839 11.9554 8.38729 11.9554 9.40799C11.9554 10.4287 11.55 11.4076 10.8282 12.1293C10.1065 12.8511 9.12756 13.2566 8.10686 13.2566C7.08616 13.2566 6.10726 12.8511 5.38551 12.1293C4.66376 11.4076 4.25829 10.4287 4.25829 9.40799C4.25829 8.38729 4.66376 7.40839 5.38551 6.68664C6.10726 5.96489 7.08616 5.55942 8.10686 5.55942ZM20.2251 10.5257C20.2251 10.107 20.1427 9.69235 19.9824 9.30549C19.8222 8.91864 19.5873 8.56713 19.2912 8.27105C18.9951 7.97496 18.6436 7.74009 18.2568 7.57985C17.8699 7.41961 17.4553 7.33713 17.0366 7.33713C16.6178 7.33713 16.2032 7.41961 15.8164 7.57985C15.4295 7.74009 15.078 7.97496 14.7819 8.27105C14.4858 8.56713 14.251 8.91864 14.0907 9.30549C13.9305 9.69235 13.848 10.107 13.848 10.5257C13.848 11.3714 14.1839 12.1824 14.7819 12.7804C15.3799 13.3783 16.1909 13.7143 17.0366 13.7143C17.8822 13.7143 18.6933 13.3783 19.2912 12.7804C19.8892 12.1824 20.2251 11.3714 20.2251 10.5257Z" fill="currentColor"/>
</svg>
