<svg width="31" height="31" viewBox="0 0 31 31" fill="#229ED9">
  <path
    d="M15.5918 30.5732C23.8761 30.5732 30.5918 23.8575 30.5918 15.5732C30.5918 7.28897 23.8761 0.573242 15.5918 0.573242C7.30753 0.573242 0.591797 7.28897 0.591797 15.5732C0.591797 23.8575 7.30753 30.5732 15.5918 30.5732Z" />
  <path
    d="M7.38157 15.4152C11.7544 13.51 14.6703 12.254 16.1292 11.6472C20.2949 9.91454 21.1605 9.61356 21.7247 9.60362C21.8487 9.60144 22.1262 9.63219 22.3059 9.77802C22.4577 9.90115 22.4994 10.0675 22.5194 10.1842C22.5394 10.301 22.5643 10.5669 22.5445 10.7747C22.3187 13.1466 21.342 18.9025 20.845 21.559C20.6348 22.683 20.2208 23.0599 19.8199 23.0968C18.9489 23.177 18.2874 22.5212 17.4437 21.9681C16.1235 21.1027 15.3777 20.564 14.0962 19.7195C12.6153 18.7436 13.5753 18.2072 14.4193 17.3306C14.6402 17.1012 18.4782 13.6102 18.5525 13.2935C18.5617 13.2539 18.5704 13.1063 18.4827 13.0283C18.395 12.9504 18.2655 12.977 18.1721 12.9982C18.0397 13.0283 15.9307 14.4223 11.845 17.1802C11.2464 17.5913 10.7041 17.7916 10.2183 17.7811C9.68274 17.7695 8.6525 17.4782 7.88663 17.2293C6.94725 16.9239 6.20065 16.7625 6.26567 16.2439C6.29953 15.9738 6.6715 15.6976 7.38157 15.4152Z"
    fill="white" />
</svg>