<svg xmlns="http://www.w3.org/2000/svg" width="24" height="25" viewBox="0 0 24 25" fill="none">
    <path
        d="M23.4168 10.7312L21.78 9.09466C21.3915 8.70618 21.0732 7.93847 21.0732 7.38791V5.07341C21.0732 3.97241 20.1737 3.07298 19.073 3.0724H16.7576C16.2077 3.0724 15.4391 2.75346 15.0506 2.36527L13.414 0.728717C12.6364 -0.0488954 11.3632 -0.0488954 10.5856 0.728717L8.94901 2.36644C8.56017 2.75493 7.7907 3.07298 7.24196 3.07298H4.92746C3.82793 3.07298 2.92733 3.97241 2.92733 5.07341V7.38797C2.92733 7.93636 2.60904 8.70647 2.2205 9.09472L0.583649 10.7313C-0.19455 11.5089 -0.19455 12.7821 0.583649 13.5609L2.2205 15.1975C2.60927 15.586 2.92733 16.3558 2.92733 16.9042V19.2188C2.92733 20.3186 3.82793 21.2192 4.92746 21.2192H7.24202C7.79193 21.2192 8.56052 21.5375 8.94907 21.9258L10.5856 23.5629C11.3632 24.3399 12.6364 24.3399 13.4141 23.5629L15.0506 21.9258C15.4394 21.5373 16.2077 21.2192 16.7577 21.2192H19.0731C20.1738 21.2192 21.0732 20.3186 21.0732 19.2188V16.9042C21.0732 16.3535 21.3918 15.5857 21.7801 15.1975L23.4169 13.5609C24.1939 12.7821 24.1939 11.5088 23.4168 10.7312ZM10.4122 16.6458L5.9994 12.2325L7.41365 10.8185L10.4125 13.8174L16.5857 7.64567L17.9996 9.05962L10.4122 16.6458Z"
        fill="currentColor" />
</svg>