<svg width="currentWidth" height="currentHeight" viewBox="0 0 48 49" fill="none" xmlns="http://www.w3.org/2000/svg">
<path d="M45 41.3862C45 42.2157 44.328 42.8862 43.5 42.8862H14.724C14.103 44.6277 12.453 45.8862 10.5 45.8862C8.547 45.8862 6.897 44.6277 6.276 42.8862H4.5C3.672 42.8862 3 42.2157 3 41.3862C3 40.5567 3.672 39.8862 4.5 39.8862H6.276C6.897 38.1447 8.547 36.8862 10.5 36.8862C12.453 36.8862 14.103 38.1447 14.724 39.8862H43.5C44.328 39.8862 45 40.5567 45 41.3862ZM21 23.4687L28.4085 18.8862L20.9925 14.2992L21 23.4687ZM45 8.38623V29.3862C45 31.8672 42.981 33.8862 40.5 33.8862H7.5C5.019 33.8862 3 31.8672 3 29.3862V8.38623C3 5.90523 5.019 3.88623 7.5 3.88623H40.5C42.981 3.88623 45 5.90523 45 8.38623ZM31.407 18.8862C31.407 17.8392 30.876 16.8867 29.985 16.3347L22.5765 11.7522C21.654 11.1807 20.4885 11.1537 19.539 11.6832C18.5895 12.2127 18 13.2162 18 14.3037V23.4687C18 24.5562 18.591 25.5612 19.539 26.0892C19.9935 26.3427 20.496 26.4672 20.9985 26.4672C21.5475 26.4672 22.095 26.3172 22.5765 26.0202L29.985 21.4362C30.8745 20.8857 31.4055 19.9317 31.4055 18.8847L31.407 18.8862Z" fill="currentColor"/>
</svg>
