<svg width="currentWidth" height="currentHeight" viewBox="0 0 48 49" fill="none" xmlns="http://www.w3.org/2000/svg">
<path d="M44.1902 22.9661V31.0211C44.1902 35.4611 40.6352 39.0761 36.2252 39.2111V45.8861L29.5502 39.2111H21.2552C18.4652 39.2111 16.0052 37.8161 14.5352 35.6861L18.8852 31.3361H25.9202C32.1002 31.3361 37.1252 26.3111 37.1252 20.1461V14.8511C41.1152 15.3911 44.1902 18.8261 44.1902 22.9661Z" fill="currentColor"/>
<path d="M25.92 3.88623H11.205C6.675 3.88623 3 7.56123 3 12.0912V20.1462C3 24.5862 6.54 28.2012 10.965 28.3362V35.0112L17.64 28.3362H25.92C30.45 28.3362 34.125 24.6762 34.125 20.1462V12.0912C34.125 7.56123 30.45 3.88623 25.92 3.88623ZM28.59 19.2312L24.165 18.1512V18.5262C24.165 19.7562 23.16 20.7762 21.915 20.7762H10.785C9.54 20.7762 8.535 19.7562 8.535 18.5262V12.6312C8.535 11.3862 9.54 10.3812 10.785 10.3812H21.915C23.16 10.3812 24.165 11.3862 24.165 12.6312V12.9912L28.59 11.9112V19.2312Z" fill="currentColor"/>
<path d="M12.1472 15.5743C12.9707 15.5743 13.6382 14.9067 13.6382 14.0833C13.6382 13.2598 12.9707 12.5923 12.1472 12.5923C11.3238 12.5923 10.6562 13.2598 10.6562 14.0833C10.6562 14.9067 11.3238 15.5743 12.1472 15.5743Z" fill="currentColor"/>
</svg>
