<svg width="35" height="35" viewBox="0 0 35 35">
  <path
    d="M17.5 1.20801C14.3479 1.20801 11.2665 2.14273 8.64561 3.89396C6.0247 5.6452 3.98195 8.13429 2.77568 11.0465C1.56941 13.9587 1.25379 17.1632 1.86874 20.2548C2.48369 23.3463 4.00159 26.1861 6.23049 28.415C8.45939 30.6439 11.2992 32.1618 14.3908 32.7768C17.4823 33.3917 20.6868 33.0761 23.599 31.8698C26.5112 30.6636 29.0003 28.6208 30.7516 25.9999C32.5028 23.379 33.4375 20.2976 33.4375 17.1455C33.4361 12.9191 31.7565 8.8661 28.768 5.87755C25.7794 2.88899 21.7265 1.20942 17.5 1.20801ZM17.5 26.708C17.0797 26.708 16.6689 26.5834 16.3194 26.3499C15.97 26.1164 15.6976 25.7845 15.5368 25.3962C15.3759 25.0079 15.3338 24.5806 15.4158 24.1684C15.4978 23.7562 15.7002 23.3776 15.9974 23.0804C16.2946 22.7832 16.6732 22.5808 17.0854 22.4988C17.4976 22.4168 17.9249 22.4589 18.3132 22.6198C18.7015 22.7806 19.0334 23.053 19.2669 23.4024C19.5004 23.7519 19.625 24.1627 19.625 24.583C19.6233 25.1461 19.3989 25.6856 19.0008 26.0837C18.6026 26.4819 18.0631 26.7063 17.5 26.708ZM19.9331 10.2286L19.2213 18.7499C19.1841 19.1808 18.9867 19.5821 18.668 19.8746C18.3493 20.167 17.9325 20.3292 17.5 20.3292C17.0675 20.3292 16.6507 20.167 16.332 19.8746C16.0133 19.5821 15.8159 19.1808 15.7788 18.7499L15.0669 10.2286C15.0362 9.89857 15.073 9.56572 15.175 9.25032C15.277 8.93492 15.4421 8.64357 15.6602 8.39399C15.8784 8.14442 16.145 7.94183 16.444 7.79857C16.7429 7.65531 17.0679 7.57436 17.3991 7.56065C17.7303 7.54694 18.0608 7.60076 18.3705 7.71882C18.6803 7.83689 18.9628 8.01674 19.2008 8.24743C19.4389 8.47812 19.6275 8.75483 19.7552 9.06072C19.8829 9.36661 19.9471 9.69529 19.9438 10.0268C19.9455 10.0942 19.942 10.1617 19.9331 10.2286Z"
    fill="currentColor" />
</svg>