<svg width="31" height="31" viewBox="0 0 31 31" fill="#E24040">
  <rect x="0.591797" y="0.573242" width="30" height="30" rx="15" />
  <path
    d="M24.5726 10.8853C24.3566 10.082 23.7232 9.44881 22.9201 9.23251C21.4529 8.83105 15.5838 8.83105 15.5838 8.83105C15.5838 8.83105 9.71488 8.83105 8.24763 9.21729C7.45994 9.43336 6.81117 10.0821 6.59511 10.8853C6.20898 12.3524 6.20898 15.395 6.20898 15.395C6.20898 15.395 6.20898 18.453 6.59511 19.9048C6.8114 20.708 7.44449 21.3412 8.24775 21.5575C9.73033 21.959 15.584 21.959 15.584 21.959C15.584 21.959 21.4529 21.959 22.9201 21.5728C23.7234 21.3566 24.3566 20.7234 24.5729 19.9203C24.9589 18.453 24.9589 15.4105 24.9589 15.4105C24.9589 15.4105 24.9743 12.3524 24.5726 10.8853ZM13.7152 18.2059V12.5841L18.5956 15.395L13.7152 18.2059Z"
    fill="white" />
</svg>