<svg width="20" height="20" viewBox="0 0 20 20" fill="none" xmlns="http://www.w3.org/2000/svg">
    <path
        d="M6.32225 5.70681L8.75557 1.75267C9.04341 1.28493 9.55331 1 10.1025 1C11.0718 1 11.8131 1.86401 11.6657 2.82206L11.4006 4.54546C11.1138 6.40968 12.5561 8.09091 14.4423 8.09091H15.1947C17.9624 8.09091 19.7625 11.0035 18.5247 13.479L17.2718 15.9848C16.3478 17.8327 14.4591 19 12.3931 19H9.21875C7.74833 19 6.44777 18.2727 5.6572 17.1582C5.66785 17.0463 5.6733 16.9329 5.6733 16.8182V8.09091C5.6733 7.72982 5.61931 7.38133 5.51898 7.05308C5.71232 6.69795 5.96973 6.27965 6.32225 5.70681Z"
        fill="currentColor" />
    <path
        d="M4.03693 16.8182C4.03693 17.8725 3.1822 18.7273 2.12784 18.7273C1.07348 18.7273 0.21875 17.8725 0.21875 16.8182V8.09091C0.21875 7.03655 1.07348 6.18182 2.12784 6.18182C3.1822 6.18182 4.03693 7.03655 4.03693 8.09091V16.8182Z"
        fill="currentColor" />
</svg>