<svg width="20" height="20" viewBox="0 0 20 20" fill="none" xmlns="http://www.w3.org/2000/svg">
    <path
        d="M15.8333 3.33333H14.9167C14.7233 2.39284 14.2115 1.54779 13.4677 0.940598C12.7239 0.333408 11.7935 0.0012121 10.8333 0L9.16667 0C8.2065 0.0012121 7.2761 0.333408 6.53229 0.940598C5.78848 1.54779 5.27675 2.39284 5.08333 3.33333H4.16667C3.062 3.33466 2.00296 3.77407 1.22185 4.55518C0.440735 5.3363 0.00132321 6.39534 0 7.5L0 10H20V7.5C19.9987 6.39534 19.5593 5.3363 18.7782 4.55518C17.997 3.77407 16.938 3.33466 15.8333 3.33333ZM6.82 3.33333C6.99174 2.84758 7.30936 2.42674 7.72942 2.12841C8.14948 1.83007 8.65145 1.6688 9.16667 1.66667H10.8333C11.3485 1.6688 11.8505 1.83007 12.2706 2.12841C12.6906 2.42674 13.0083 2.84758 13.18 3.33333H6.82Z"
        fill="currentColor" />
    <path
        d="M10.8333 12.4993C10.8333 12.7204 10.7455 12.9323 10.5893 13.0886C10.433 13.2449 10.221 13.3327 10 13.3327C9.77899 13.3327 9.56702 13.2449 9.41074 13.0886C9.25446 12.9323 9.16667 12.7204 9.16667 12.4993V11.666H0V15.8327C0.00132321 16.9373 0.440735 17.9964 1.22185 18.7775C2.00296 19.5586 3.062 19.998 4.16667 19.9993H15.8333C16.938 19.998 17.997 19.5586 18.7782 18.7775C19.5593 17.9964 19.9987 16.9373 20 15.8327V11.666H10.8333V12.4993Z"
        fill="currentColor" />
</svg>