<svg width="63" height="74" viewBox="0 0 63 74" fill="none" xmlns="http://www.w3.org/2000/svg">
    <path
        d="M62.2766 53.545L52.98 37.4555C52.5604 36.7325 51.789 36.2852 50.9497 36.2852H32.3565C31.5212 36.2852 30.7458 36.7325 30.3262 37.4555L21.0296 53.545C20.6099 54.268 20.6099 55.1627 21.0296 55.8857L30.3262 71.9752C30.7458 72.6982 31.5172 73.1455 32.3565 73.1455H50.9497C51.785 73.1455 52.5604 72.6982 52.98 71.9752L62.2766 55.8857C62.6963 55.1627 62.6963 54.268 62.2766 53.545Z"
        fill="black" />
    <path
        d="M41.5618 17.2598L32.2652 1.17036C31.8455 0.447371 31.0741 0 30.2348 0H11.6417C10.8063 0 10.031 0.447371 9.61131 1.17036L0.314748 17.2598C-0.104916 17.9828 -0.104916 18.8776 0.314748 19.6005L9.61131 35.69C10.031 36.413 10.8023 36.8604 11.6417 36.8604H30.2348C31.0701 36.8604 31.8455 36.413 32.2652 35.69L41.5618 19.6005C41.9814 18.8776 41.9814 17.9828 41.5618 17.2598Z"
        fill="black" />
    <path
        d="M10.2822 29.754H13.4517L13.3597 29.5902C12.8961 28.7833 12.0848 28.2082 10.9777 28.2082C9.88253 28.2082 9.72665 28.7794 10.1943 29.5942L10.2862 29.754H10.2822ZM9.0592 31.7272L7.92809 29.758C6.63713 27.5091 7.73625 26.3028 9.87854 26.2988C12.0328 26.2988 14.5028 27.4972 15.7938 29.746L16.769 31.4436L11.2574 31.4516L11.4373 31.7672C11.9249 32.614 12.8521 33.2171 14.5428 33.2131C15.2662 33.2131 16.0656 33.1692 17.1087 32.7778L18.1919 34.6591C17.4884 34.9907 16.5652 35.1185 15.3981 35.1225C12.9841 35.1225 10.4541 34.1518 9.0592 31.7272Z"
        fill="white" />
    <path
        d="M24.6633 32.6426L22.4331 28.7561C21.8416 28.4445 21.1901 28.2408 20.5866 28.2408C19.4915 28.2408 19.3436 28.812 19.8592 29.7107L20.9983 31.696C21.5139 32.5947 22.3132 33.1619 23.4083 33.1619C24.0118 33.1619 24.4275 32.9582 24.6593 32.6426M18.8 32.0035L17.3092 29.4072C16.1541 27.398 16.9815 26.2915 18.9439 26.2915C19.7992 26.2915 20.6106 26.4952 21.346 26.8667L18.9679 22.7285H21.342L28.3524 34.9434H26.1581L25.8424 34.3962C25.5666 34.8635 24.9591 35.1192 24.0038 35.1192C22.0414 35.1192 19.9511 34.0207 18.796 32.0075"
        fill="white" />
    <path
        d="M25.6778 49.4507L29.4028 43.0117H28.1518L29.167 41.2581H30.422L31.2733 39.7842C32.3844 37.8669 34.207 37.5713 35.2062 37.5713C35.5779 37.5713 35.9656 37.5952 36.3613 37.6512L35.3461 39.4047C35.2541 39.3967 35.0503 39.3887 34.9144 39.3887C33.9952 39.3887 33.6274 39.7003 33.3517 40.1756L32.7242 41.2581H34.3109L33.2957 43.0117H31.709L27.984 49.4507H25.6738H25.6778Z"
        fill="white" />
    <path
        d="M36.5264 39.7287L37.6815 37.7275H40.0796L38.9245 39.7247H36.5264V39.7287ZM30.9629 49.4471L35.7031 41.2546H38.0133L33.273 49.4471H30.9629Z"
        fill="white" />
    <path
        d="M34.2441 49.4427L40.1634 45.2126L39.2082 41.2502L41.902 41.2462L42.4296 43.6308L45.719 41.2462L48.3809 41.2422L42.8533 45.2006L43.8684 49.4347L41.1866 49.4387L40.5911 46.7744L36.918 49.4427H34.2441Z"
        fill="white" />
</svg>